# xmcd
#
# Track frame offsets: 
#        182
#        27407
#        42150
#        56372
#        70585
#        84112
#        98537
#        109015
#        120100
#        132982
#        144717
#        157260
#        173255
#        186952
#        200950
#        227595
#
# Disc length: 3209 seconds
#
# Revision: 1
# Processed by: cddbd v1.5.1PL0 Copyright (c) Steve Scherf et al.
# Submitted via: ExactAudioCopy v0.95a3
#
DISCID=cb0c8710
DTITLE=Various Artist - 16 All-Time Jazz Sessions vol.7
DYEAR=1989
DGENRE=Jazz
TTITLE0=Louis Armstrong - Baby It's Cold Outside
TTITLE1=Lionel Hampton - Flying Home
TTITLE2=Errol Garner - Confessin' That I Love You
TTITLE3=Gene Krupa - Drum Boogie
TTITLE4=Benny Goodman - Jersey Bounce
TTITLE5=Jerry Roll Morton - Jelly Roll Blues
TTITLE6=Ella Fitzgerald - Taking A Chance Of Love
TTITLE7=Sarah Vaughan - I Cried For You
TTITLE8=Charlie Parker - Ko Ko
TTITLE9=Dinah Washington - Ain't Misbehavin'
TTITLE10=George Shearing/ Pionciana
TTITLE11=Stephane Grapelli - Makin' Whopee
TTITLE12=Woody Herman - Caldonia
TTITLE13=Lena Horne - More Than You Know
TTITLE14=Cannonball Adderly - Rose Room
TTITLE15=Billlie Holiday - Cry Me A River
EXTD=YEAR: 1989
EXTT0=
EXTT1=
EXTT2=
EXTT3=
EXTT4=
EXTT5=
EXTT6=
EXTT7=
EXTT8=
EXTT9=
EXTT10=
EXTT11=
EXTT12=
EXTT13=
EXTT14=
EXTT15=
PLAYORDER=
